<svg xmlns="http://www.w3.org/2000/svg" viewBox="0 0 393.27 168.93"><defs><style>.cls-1{fill:none;stroke:#003b36;stroke-width:3px;}</style></defs><title>aidemoAsset 1</title><g id="Layer_2" data-name="Layer 2"><g id="Layer_1-2" data-name="Layer 1"><path class="cls-1" d="M1.5,1.5H12.78v28H39.4V1.5H50.68V65.77H39.4v-28H12.78v28H1.5Z"/><path class="cls-1" d="M103.57,58.43a31.73,31.73,0,0,1-4.9,4.35A21.74,21.74,0,0,1,94,65.3a20.08,20.08,0,0,1-4.76,1.17,43.29,43.29,0,0,1-5,.29,22,22,0,0,1-9.7-2,18.6,18.6,0,0,1-6.6-5.25A21.69,21.69,0,0,1,64.1,52a32.18,32.18,0,0,1-1.21-8.86,28.28,28.28,0,0,1,1.25-8.47A20.45,20.45,0,0,1,68,27.54a18.77,18.77,0,0,1,6.44-4.92,21.07,21.07,0,0,1,9.13-1.84,24.1,24.1,0,0,1,8.2,1.27,15.65,15.65,0,0,1,5.89,3.65,15.27,15.27,0,0,1,3.54,5.76A22.56,22.56,0,0,1,102.34,39c0,1.07,0,2.17-.1,3.3a30.88,30.88,0,0,1-.43,3.55H74.12a14.8,14.8,0,0,0,.7,4.22,16.63,16.63,0,0,0,2,4.33,12.21,12.21,0,0,0,3.3,3.38,7.75,7.75,0,0,0,4.52,1.36,20.09,20.09,0,0,0,3.87-.33,11.24,11.24,0,0,0,3.08-1.07,12.69,12.69,0,0,0,2.71-1.94,31.86,31.86,0,0,0,2.76-3ZM82.9,28.78a9,9,0,0,0-4.26.9A7.25,7.25,0,0,0,76,32.06a9.51,9.51,0,0,0-1.39,3.36,17.92,17.92,0,0,0-.41,3.9H91.11a28.16,28.16,0,0,0-.25-3.59,9.26,9.26,0,0,0-1.11-3.41,7,7,0,0,0-2.48-2.54A8.24,8.24,0,0,0,82.9,28.78Z"/><path class="cls-1" d="M132.6,54.25l9.19-32.78h11.65L136,69.13q-1.64,3.74-3.15,6.65a20.52,20.52,0,0,1-3.49,4.9,13.23,13.23,0,0,1-4.62,3,18,18,0,0,1-6.54,1,18.51,18.51,0,0,1-5.84-.9,21.67,21.67,0,0,1-4.82-2.22l2-6.48a15.67,15.67,0,0,0,1.58.54,21,21,0,0,0,2.07.49c.74.14,1.5.25,2.3.35a20,20,0,0,0,2.25.14,5.78,5.78,0,0,0,2.85-.68,7.62,7.62,0,0,0,2.3-2,15.86,15.86,0,0,0,2-3.22q.9-1.93,1.8-4.39a12.87,12.87,0,0,0,.56-1.64,17.84,17.84,0,0,0,.39-1.93L110.7,21.47h11.65Z"/><path class="cls-1" d="M160.31,60.48a5.9,5.9,0,0,1,.45-2.3A6.09,6.09,0,0,1,162,56.32a5.65,5.65,0,0,1,4-1.7,5.39,5.39,0,0,1,2.18.45,5.6,5.6,0,0,1,1.8,1.25,5.54,5.54,0,0,1,1.21,1.86,6.37,6.37,0,0,1,0,4.6A5.54,5.54,0,0,1,170,64.64a5.6,5.6,0,0,1-1.8,1.25,5.23,5.23,0,0,1-2.18.46,5.35,5.35,0,0,1-2.19-.46A5.52,5.52,0,0,1,162,64.64a6.09,6.09,0,0,1-1.23-1.86A5.86,5.86,0,0,1,160.31,60.48Z"/><path class="cls-1" d="M1.5,166.57V102.3H12.78v64.27Z"/><path class="cls-1" d="M23.51,113.21c1-.6,1.85-1.2,2.67-1.78a15.14,15.14,0,0,0,2.13-1.83,7.71,7.71,0,0,0,1.42-2.07,6,6,0,0,0,.51-2.52,4.74,4.74,0,0,0-.08-.86c-.06-.28-.13-.58-.21-.91a3.14,3.14,0,0,1-.94.45,4.41,4.41,0,0,1-1.52.25A4.42,4.42,0,0,1,24,102.59a5,5,0,0,1-1.19-3.41,5.67,5.67,0,0,1,.39-2.07,5.56,5.56,0,0,1,1.11-1.78A5.4,5.4,0,0,1,26,94.08a5.23,5.23,0,0,1,2.28-.48,9.45,9.45,0,0,1,4,.78,7.93,7.93,0,0,1,4.29,4.72,9.25,9.25,0,0,1,.49,2.87,13.83,13.83,0,0,1-.9,5.19,13.33,13.33,0,0,1-2.42,3.92,17.44,17.44,0,0,1-3.55,3,44.08,44.08,0,0,1-4.29,2.4Z"/><path class="cls-1" d="M56.76,122.27a16.78,16.78,0,0,1,.54,1.87q.29,1.22.45,2.19a14.55,14.55,0,0,1,2.52-1.74,27,27,0,0,1,3.24-1.52A23.27,23.27,0,0,1,67.2,122a18.34,18.34,0,0,1,3.88-.41,15.78,15.78,0,0,1,6.52,1.29A11.17,11.17,0,0,1,82,126.21a32.6,32.6,0,0,1,3.65-2.15,23.38,23.38,0,0,1,3.53-1.44,21.81,21.81,0,0,1,3.6-.8,30.77,30.77,0,0,1,3.94-.24,16.16,16.16,0,0,1,6.11,1,11.2,11.2,0,0,1,4.17,2.87,11.56,11.56,0,0,1,2.38,4.31,18.32,18.32,0,0,1,.75,5.31v31.46H99.5v-28.5a14,14,0,0,0-.51-4.13,6.22,6.22,0,0,0-1.48-2.58A5.29,5.29,0,0,0,95.15,130a11.73,11.73,0,0,0-3.16-.39,17.35,17.35,0,0,0-3.83.41,20.24,20.24,0,0,0-4,1.39,11.18,11.18,0,0,1,.49,2.15,21.09,21.09,0,0,1,.17,2.81v30.19H74.11v-28.5a15.72,15.72,0,0,0-.47-4.19,5.92,5.92,0,0,0-1.41-2.58A5,5,0,0,0,69.89,130a12.77,12.77,0,0,0-3.28-.37,14.17,14.17,0,0,0-4.33.59,19,19,0,0,0-3.71,1.66v34.7H47.9V127.44c0-.93,0-1.86,0-2.79a15,15,0,0,0-.24-2.38Z"/><path class="cls-1" d="M205.91,110.63H180.77v17.59h20v8.29h-20v21.74H207v8.32H169.49V102.3h36.42Z"/><path class="cls-1" d="M227.72,122.27a80.71,80.71,0,0,1,1.23,8.86,13.92,13.92,0,0,1,2.25-3.52,20.18,20.18,0,0,1,3.28-3.06,17.54,17.54,0,0,1,3.8-2.15,9.86,9.86,0,0,1,3.79-.82,14.53,14.53,0,0,1,3.36.28,13.61,13.61,0,0,1,1.77.58l-2.3,9.64a10.74,10.74,0,0,0-2.44-.84,11.41,11.41,0,0,0-2.23-.23,11.55,11.55,0,0,0-6.55,1.81,14.2,14.2,0,0,0-4.45,4.75l.09,29H218.57V129.74c0-.47,0-1.05,0-1.76s0-1.44,0-2.18,0-1.43-.08-2.07-.09-1.13-.15-1.46Z"/><path class="cls-1" d="M255.8,108.41a5.73,5.73,0,0,1,1.74-4.18,5.47,5.47,0,0,1,1.89-1.21,6.14,6.14,0,0,1,2.32-.43,5.7,5.7,0,0,1,2.37.47,5.86,5.86,0,0,1,1.85,1.27,5.29,5.29,0,0,1,1.19,1.89,6.43,6.43,0,0,1,.41,2.27,6.29,6.29,0,0,1-.41,2.26,5.66,5.66,0,0,1-1.19,1.89,6.14,6.14,0,0,1-1.85,1.31,5.55,5.55,0,0,1-2.37.49,5.35,5.35,0,0,1-2.32-.51,6.17,6.17,0,0,1-1.89-1.36,6.55,6.55,0,0,1-1.27-1.92A5.66,5.66,0,0,1,255.8,108.41Zm.53,13.86H267v44.3H256.33Z"/><path class="cls-1" d="M320.06,159a19.25,19.25,0,0,1-3.94,4.23,18,18,0,0,1-4.39,2.48,19.35,19.35,0,0,1-4.74,1.17,42.41,42.41,0,0,1-4.94.29A23.93,23.93,0,0,1,292,165.22a19.41,19.41,0,0,1-6.81-5.09,19.88,19.88,0,0,1-3.85-7.2,28.47,28.47,0,0,1-1.21-8.26,27.8,27.8,0,0,1,1.47-9.19,20.89,20.89,0,0,1,4.35-7.32,19.8,19.8,0,0,1,7.16-4.84,26.31,26.31,0,0,1,10-1.74c1.5,0,2.95.07,4.34.2a21.41,21.41,0,0,1,4,.8,18.47,18.47,0,0,1,3.74,1.62,16.63,16.63,0,0,1,3.42,2.67l-6.64,6.85c-.8-.82-1.54-1.52-2.22-2.09a10.54,10.54,0,0,0-2.13-1.42,9.51,9.51,0,0,0-2.32-.8,14.15,14.15,0,0,0-2.73-.24,9.34,9.34,0,0,0-5.06,1.31,11.21,11.21,0,0,0-3.49,3.4,15.24,15.24,0,0,0-2,4.68,21.54,21.54,0,0,0-.63,5.12,28.18,28.18,0,0,0,.65,6.24,15.49,15.49,0,0,0,2.05,5.06,10.3,10.3,0,0,0,3.53,3.39,10,10,0,0,0,5.09,1.23,13.77,13.77,0,0,0,2.68-.25,8.59,8.59,0,0,0,2.53-.92,11.12,11.12,0,0,0,2.44-1.87,20.18,20.18,0,0,0,2.48-3.07Z"/><path class="cls-1" d="M329.6,128.3a25.47,25.47,0,0,1,8.28-4.94A28.74,28.74,0,0,1,348,121.58a27.94,27.94,0,0,1,6.85.82,18.59,18.59,0,0,1,5.83,2.5,12.66,12.66,0,0,1,4.06,4.33,12.36,12.36,0,0,1,1.52,6.25v19.77a14.6,14.6,0,0,0,.16,2.4,3.75,3.75,0,0,0,.55,1.52,2.09,2.09,0,0,0,1,.78,4.48,4.48,0,0,0,1.52.22,11.27,11.27,0,0,0,1.23-.12c.6-.08,1.17-.18,1.72-.29l1.15,4.72c-.66.41-1.33.79-2,1.15a15.6,15.6,0,0,1-2.2.92,18.83,18.83,0,0,1-2.54.64,17.49,17.49,0,0,1-3,.24,9,9,0,0,1-5.15-1.41,6.38,6.38,0,0,1-2.65-4,19.75,19.75,0,0,1-3.56,2.66,20.11,20.11,0,0,1-3.72,1.69,20.73,20.73,0,0,1-3.73.86,28.36,28.36,0,0,1-3.63.24,17.19,17.19,0,0,1-5.37-.78,11,11,0,0,1-4.06-2.31,10.31,10.31,0,0,1-2.59-3.82,14.41,14.41,0,0,1-.9-5.31,15.68,15.68,0,0,1,1.05-6,13.1,13.1,0,0,1,2.89-4.41,15.44,15.44,0,0,1,4.39-3.05,27.25,27.25,0,0,1,5.55-1.91,46.05,46.05,0,0,1,6.38-1c2.25-.2,4.53-.29,6.85-.29V137a10.16,10.16,0,0,0-.61-3.73,6.76,6.76,0,0,0-1.7-2.55,6.94,6.94,0,0,0-2.61-1.45,11.09,11.09,0,0,0-3.36-.47,15.6,15.6,0,0,0-3,.26,11.37,11.37,0,0,0-2.81.95,18,18,0,0,0-2.93,1.8,37.25,37.25,0,0,0-3.36,2.89Zm26,15.14a37.79,37.79,0,0,0-7.81,1,14.26,14.26,0,0,0-4.84,2.16,7.09,7.09,0,0,0-2.48,3.11,10.59,10.59,0,0,0-.7,3.92,9.49,9.49,0,0,0,.41,3,4.73,4.73,0,0,0,1.17,1.92,4.26,4.26,0,0,0,1.82,1.05,8.66,8.66,0,0,0,2.34.31,21.25,21.25,0,0,0,2.36-.13,15.2,15.2,0,0,0,2.48-.47,16.08,16.08,0,0,0,2.59-1,18.17,18.17,0,0,0,2.66-1.56Z"/><path class="cls-1" d="M380.45,161.28a5.89,5.89,0,0,1,1.68-4.16,5.6,5.6,0,0,1,4-1.7,5.34,5.34,0,0,1,2.17.45,5.73,5.73,0,0,1,3,3.11,6.23,6.23,0,0,1,0,4.6,5.73,5.73,0,0,1-3,3.11,5.19,5.19,0,0,1-2.17.46,5.36,5.36,0,0,1-2.2-.46,5.48,5.48,0,0,1-1.82-1.25,5.89,5.89,0,0,1-1.68-4.16Z"/></g></g></svg>