<svg xmlns="http://www.w3.org/2000/svg" viewBox="0 0 798.04 732.4"><defs><style>.cls-1{fill:#00211c;}</style></defs><title>Asset 20</title><g id="Layer_2" data-name="Layer 2"><g id="Layer_1-2" data-name="Layer 1"><path class="cls-1" d="M497.67,544.83a48.29,48.29,0,0,0-2.67-11l-1-2.65c-.38-.86-.81-1.69-1.22-2.54a49.92,49.92,0,0,0-2.73-4.85c-.46-.81-1-1.53-1.54-2.28l-1.58-2.21c-1.14-1.39-2.24-2.82-3.42-4.13-2.35-2.63-4.78-5.13-7.26-7.45-4.94-4.67-9.95-8.88-14.64-13.1a115.36,115.36,0,0,1-12.71-13,84.75,84.75,0,0,1-15-29.42,123.54,123.54,0,0,1-4.71-29,208.05,208.05,0,0,1,.37-24.59c.51-7.26,1.15-13.52,1.67-18.65,1.08-10.26,1.54-16,1-16.07s-2,5.44-4.06,15.61c-1,5.08-2.1,11.34-3,18.68a186.21,186.21,0,0,0-1.58,25.19,123.93,123.93,0,0,0,4,30.63,89.52,89.52,0,0,0,15.67,32.23c7.93,10.14,18.36,18.14,27.7,27.12,2.36,2.24,4.59,4.57,6.72,7,1.07,1.2,2,2.48,3.06,3.72l1.37,2a20.27,20.27,0,0,1,1.33,2,41.08,41.08,0,0,1,2.32,4.15c.34.71.7,1.41,1,2.13l.83,2.22a40.43,40.43,0,0,1,2.25,9.35c.86,6.53.66,13.4.54,20.21s-.48,13.53-.77,20.17c-.6,13.27-1.08,26.21-.54,38.62.3,6.19.81,12.25,1.66,18.11.2,1.46.49,2.91.72,4.35.12.72.25,1.43.37,2.15l.45,2.12c.31,1.4.6,2.8.93,4.18s.69,2.76,1.1,4.1A99.12,99.12,0,0,0,507.38,688a80.51,80.51,0,0,0,17.43,18.76,60.15,60.15,0,0,0,17,9.28,44.51,44.51,0,0,0,11.89,2.49,20.45,20.45,0,0,0,3.15,0c.71-.06,1.08-.16,1.09-.3s-.34-.31-1-.52-1.68-.41-3-.78a64.23,64.23,0,0,1-11-3.79,63.32,63.32,0,0,1-15.28-9.86,80.58,80.58,0,0,1-15.51-18.38,97.15,97.15,0,0,1-11.53-26.77c-.35-1.27-.63-2.56-.93-3.86s-.51-2.65-.77-4l-.39-2-.3-2c-.2-1.38-.43-2.76-.6-4.17-.69-5.61-1.07-11.43-1.26-17.43-.33-12,.29-24.71,1-38,.35-6.64.7-13.42.9-20.34.06-3.47.17-6.93.13-10.51A91.41,91.41,0,0,0,497.67,544.83Z"/><path class="cls-1" d="M221,4.88a123.5,123.5,0,0,0-15.56,6.43c-2.51,1.25-5,2.56-7.38,3.95L191,19.54A234.1,234.1,0,0,0,164.82,39c-16.43,14-30.85,29.52-44.22,45.26-6.7,7.88-13.16,15.8-19.5,23.67-3.16,4-6.31,7.82-9.44,11.82a125.85,125.85,0,0,0-8.81,12.6,74.42,74.42,0,0,0-3.64,6.91l-.79,1.8-.68,1.83c-.43,1.23-1,2.44-1.31,3.68a81.76,81.76,0,0,0-3,15,145.76,145.76,0,0,0-.72,14.81c0,4.86.15,9.64.28,14.36s.27,9.36.18,13.92c0,1.15,0,2.28-.09,3.41s-.08,2.27-.14,3.39c-.2,2.23-.3,4.47-.64,6.65-1,8.77-3.67,17.22-6.78,25.43-6.3,16.4-14.69,32-19.17,48.73a130.46,130.46,0,0,0-4,25c-.58,8.24-.58,16.3-.38,24.15s.58,15.48.88,23,.6,14.76.88,21.9c1.05,28.49,1,54.26-1.24,76.73-1.08,11.23-2.43,21.68-4.16,31.17A209,209,0,0,1,32,519.74a164,164,0,0,1-7.61,19.63c-.6,1.4-1.27,2.71-1.9,4s-1.21,2.49-1.81,3.63c-1.24,2.26-2.31,4.35-3.35,6.16l-2.77,4.8c-.83,1.36-1.52,2.51-2.07,3.43-1.1,1.86-1.61,2.85-1.5,2.93s.85-.76,2.17-2.47c.66-.86,1.49-1.92,2.42-3.23L18.69,554c1.16-1.76,2.35-3.81,3.72-6,.66-1.13,1.31-2.34,2-3.58s1.43-2.55,2.1-4a153,153,0,0,0,8.42-19.68A200.84,200.84,0,0,0,42,494.88c2-9.6,3.56-20.1,4.87-31.44,2.65-22.7,3.13-48.74,2.44-77.36-.15-7.15-.37-14.47-.61-21.95s-.52-15.12-.63-22.86,0-15.61.6-23.54a125.12,125.12,0,0,1,4-23.76,177.7,177.7,0,0,1,8.78-23.54c3.46-7.9,7.22-15.93,10.55-24.4s6.17-17.5,7.37-27c.38-2.37.51-4.75.73-7.13.07-1.19.11-2.38.17-3.57s.11-2.38.11-3.57c.12-4.76,0-9.49-.1-14.23s-.21-9.44-.21-14.15.22-9.38.74-14a74.24,74.24,0,0,1,2.8-13.55c.31-1.12.79-2.16,1.17-3.24l.6-1.61.7-1.58a62.76,62.76,0,0,1,3.28-6.15c4.86-8,11.41-15.58,17.72-23.48s12.78-15.68,19.43-23.45C139.83,73.76,154,58.55,170,45a228.08,228.08,0,0,1,25.32-18.73l6.78-4.1c2.27-1.31,4.58-2.54,6.93-3.71a115.84,115.84,0,0,1,14.54-6c9.94-3.3,20.34-5.1,30.38-4.28a53.34,53.34,0,0,1,7.39,1.13,48.55,48.55,0,0,1,7.05,2.23,43,43,0,0,1,6.52,3.33l1.51,1a8.76,8.76,0,0,1,1,.86A12.32,12.32,0,0,1,279.27,19a11.58,11.58,0,0,1,1.22,2.67,5.42,5.42,0,0,1,.27,2.2,1.71,1.71,0,0,1-.06.26s0,0,0,0h0s0,0,0,0l-.2-.07A3.58,3.58,0,0,1,279,23a6.67,6.67,0,0,1-1.06-2.19,10.23,10.23,0,0,1,.06-5.54,8.18,8.18,0,0,1,1.12-2.34,6.14,6.14,0,0,1,.78-.89,4.07,4.07,0,0,1,.51-.43l.58-.45a14.88,14.88,0,0,1,5.62-2.29c4.26-.8,9.07-.3,13.79.73a130.58,130.58,0,0,1,27.9,9.82c2.24,1,4.38,2.23,6.56,3.34s4.27,2.42,6.4,3.61,4.17,2.55,6.22,3.89,4.08,2.65,6,4.08c8,5.58,15.54,11.6,22.82,17.83s14.38,12.64,20.9,19.19,12.3,13.54,16.54,21.19a71.52,71.52,0,0,1,7.84,24.58A177.77,177.77,0,0,1,423,143c0,8.63-.26,17.23.09,25.77s1.27,16.87,2.41,25,2.64,16,4.18,23.65c3.05,15.35,6.29,29.92,8.55,43.92a223.45,223.45,0,0,1,3.24,40.09,231.12,231.12,0,0,1-4.06,35.72c-2,11.11-4.23,21.44-6.08,31s-3.37,18.37-4.31,26.36a171.1,171.1,0,0,0-1.31,21.35,120.25,120.25,0,0,0,1.07,15.64,84.54,84.54,0,0,0,1.85,9.45c.58,2.1.94,3.15,1.07,3.12.34-.08-.61-4.41-1.32-12.74a141.8,141.8,0,0,1-.29-15.44,185,185,0,0,1,2-21c1.16-7.85,2.87-16.53,4.95-26s4.51-19.77,6.75-30.95a231.32,231.32,0,0,0,4.75-36.39,227.1,227.1,0,0,0-2.74-41.12c-2.11-14.24-5.21-28.94-8.08-44.22q-2.18-11.46-3.89-23.38c-1-7.95-1.85-16.06-2.13-24.31s0-16.75.13-25.48a183.63,183.63,0,0,0-1.22-26.91,86,86,0,0,0-2.95-13.76l-1.09-3.41c-.44-1.11-.89-2.23-1.33-3.35A65.26,65.26,0,0,0,420.1,89c-4.64-8.5-10.87-16-17.61-22.9-3.37-3.45-6.87-6.76-10.41-10s-7.14-6.5-10.84-9.69c-7.39-6.38-15.12-12.6-23.33-18.39-2-1.49-4.17-2.83-6.26-4.26s-4.29-2.7-6.45-4.06-4.4-2.59-6.67-3.8-4.52-2.45-6.88-3.52A137,137,0,0,0,302.06,1.89C296.78.75,291.11,0,285.12,1.08a22.86,22.86,0,0,0-8.69,3.58l-1,.74a12.81,12.81,0,0,0-1,.83,14.3,14.3,0,0,0-1.79,2A16.36,16.36,0,0,0,270.41,13a18.07,18.07,0,0,0-.1,10,14.79,14.79,0,0,0,2.38,4.85,11.35,11.35,0,0,0,4.69,3.66,6.39,6.39,0,0,0,.73.27,8.08,8.08,0,0,0,.9.27,11.64,11.64,0,0,0,1.93.27c.32,0,.64,0,1,0l.92-.3a8.77,8.77,0,0,0,1.77-.79,8.2,8.2,0,0,0,3.63-4.47,8.32,8.32,0,0,0,.4-1.66,13.1,13.1,0,0,0-.51-5.64,19.19,19.19,0,0,0-2.06-4.55A19.76,19.76,0,0,0,283,11a16.19,16.19,0,0,0-2-1.68l-1.84-1.19a52.46,52.46,0,0,0-7.72-3.95,58.28,58.28,0,0,0-8.26-2.62A61.54,61.54,0,0,0,254.58.23C243.1-.71,231.71,1.34,221,4.88Z"/><path class="cls-1" d="M102.44,578a196.68,196.68,0,0,1,4.22-44.08q.57-2.67,1.15-5.33t1.42-5.25c.49-1.74.89-3.51,1.45-5.22l1.69-5.12a213.29,213.29,0,0,1,7.81-20c5.72-13.06,12.1-25.73,17.72-38.56s10.47-25.91,12.93-39.38c.73-3.34,1-6.74,1.48-10.09a23.53,23.53,0,0,0,.19-2.53l.14-2.52c.06-1.68.22-3.36.16-5A118.72,118.72,0,0,0,151,375.33c-2.17-12.69-5.82-24.5-9.32-35.76s-6.85-22-9.49-32.56-4.78-20.72-6.29-30.52a222,222,0,0,1-2.2-53.3,173.67,173.67,0,0,1,8-39.48,159.1,159.1,0,0,1,10-23.53c.69-1.29,1.25-2.46,1.8-3.43s1-1.79,1.35-2.47c.71-1.34,1-2.06.9-2.14s-.65.5-1.58,1.7c-.47.6-1,1.36-1.7,2.27s-1.35,2-2.17,3.27a127.75,127.75,0,0,0-11.56,23.28,166.44,166.44,0,0,0-9.52,40.09,220.13,220.13,0,0,0,1.06,54.55c1.37,10,3.33,20.46,5.89,31.18s5.73,21.78,9.14,33,6.79,22.86,8.73,35a113,113,0,0,1,1.49,18.43c0,1.55-.12,3.11-.2,4.67l-.14,2.35a23.28,23.28,0,0,1-.2,2.35c-.43,3.13-.74,6.29-1.46,9.43-2.4,12.63-7.17,25.14-12.68,37.69s-12,25.16-17.91,38.49a208.7,208.7,0,0,0-14.12,42.41,201.45,201.45,0,0,0,17.39,133.49c1.59,3.34,3.43,6.45,5,9.55a68.38,68.38,0,0,1,4.1,9.19,28.39,28.39,0,0,1,1.65,9.11,22,22,0,0,1-1.8,8.68,32.57,32.57,0,0,1-11.76,13.83A47.71,47.71,0,0,1,96.27,723a112,112,0,0,1-18.87,2c-6.4.23-12.67.36-18.74,0-3-.16-6-.52-8.93-1a63.72,63.72,0,0,1-8.44-2,35.36,35.36,0,0,1-14-8.19,32.57,32.57,0,0,1-8.13-13.37,56.72,56.72,0,0,1-2.49-15.57,110.84,110.84,0,0,1,.74-15.62c.56-5.1,1.37-10.19,2-15.21,1.23-10,1.87-19.94.15-29.28a46.41,46.41,0,0,0-4.43-13.11c-.56-1-1.06-2-1.66-2.91s-1.2-1.82-1.81-2.68c-1.21-1.71-2.41-3.31-3.45-4.89a24,24,0,0,1-2.54-4.78,21.78,21.78,0,0,1-1.32-5,30.15,30.15,0,0,1,.44-9.92A56.46,56.46,0,0,1,11.58,565c2.82-4.76,5.63-8.89,7.88-12.6a82.78,82.78,0,0,0,5.2-9.73c2.37-5.52,2.69-8.71,2.48-8.75s-1.16,2.91-3.93,8a102.08,102.08,0,0,1-5.75,9.14c-2.43,3.53-5.42,7.5-8.53,12.26A58.17,58.17,0,0,0,1,580.74,33.62,33.62,0,0,0,.16,592a27.25,27.25,0,0,0,4.21,11.63c2.19,3.56,4.75,6.68,6.43,10.26a41.7,41.7,0,0,1,3.68,11.8c1.38,8.51.64,17.87-.75,27.67-.68,4.92-1.57,9.94-2.25,15.26a114.42,114.42,0,0,0-1,16.45A62,62,0,0,0,13,702.47a39,39,0,0,0,9.56,16.12,41.82,41.82,0,0,0,16.57,10,69.53,69.53,0,0,0,9.43,2.36,96.91,96.91,0,0,0,9.63,1.14c6.46.46,12.94.37,19.44.2a119.18,119.18,0,0,0,20.12-2,65.14,65.14,0,0,0,10.18-2.9,47.52,47.52,0,0,0,9.75-5,40.06,40.06,0,0,0,14.58-17.07,29.65,29.65,0,0,0,2.46-11.64,36.2,36.2,0,0,0-2-11.61c-2.46-7.31-6.42-13.53-9.47-19.83A195.49,195.49,0,0,1,102.44,578Z"/><path class="cls-1" d="M288.68,97.46a229.42,229.42,0,0,1,35.46,2.17c11.38,1.56,22.16,3.93,31.42,8.21a66.38,66.38,0,0,1,22.92,17.33,65.53,65.53,0,0,1,12.3,22,76.06,76.06,0,0,1,2.7,10.88c.61,3.5,1,6.85,1.27,10,.51,6.33.52,11.85.54,16.37-.05,9,0,14.12.55,14.16s1.55-4.9,2.56-14a143.32,143.32,0,0,0,.82-16.74,101.17,101.17,0,0,0-.71-10.56,77.62,77.62,0,0,0-2.31-11.74A69.3,69.3,0,0,0,383.61,121a71.92,71.92,0,0,0-24.9-19.79c-10.22-4.94-21.71-7.57-33.44-9.3a224.89,224.89,0,0,0-36.72-2.41A233.14,233.14,0,0,0,251.93,93a211.37,211.37,0,0,0-33.15,8.76,168,168,0,0,0-50.62,28.15,127.79,127.79,0,0,0-16,15.55,102.77,102.77,0,0,0-10,13.55c-.6,1-1.2,1.89-1.69,2.79s-.92,1.75-1.34,2.53L138,166.5l-.79,1.88c-.92,2.25-1.28,3.47-1,3.6s1.08-.86,2.44-2.82l1.11-1.66,1.42-1.94c.51-.7,1.05-1.46,1.62-2.27s1.26-1.63,1.94-2.53a130.7,130.7,0,0,1,10.71-12.28,140.12,140.12,0,0,1,16.22-14.14,174.58,174.58,0,0,1,49.53-25.63,218.47,218.47,0,0,1,32.09-8A238.07,238.07,0,0,1,288.68,97.46Z"/><ellipse class="cls-1" cx="390.25" cy="264" rx="74.86" ry="4" transform="translate(89.93 627.03) rotate(-84.48)"/><path class="cls-1" d="M310.07,465.68a60.06,60.06,0,0,1-15.32,5.12,105,105,0,0,1-16,2,105.61,105.61,0,0,1-56.13-13.06A109.43,109.43,0,0,1,212,453a111.36,111.36,0,0,1-9-7.38,112.66,112.66,0,0,1-13.66-14.8,129.2,129.2,0,0,1-8.54-12.71c-4.22-7.31-6.12-11.67-6.7-11.45s.44,4.89,3.93,12.87a99.63,99.63,0,0,0,7.67,13.89,105.14,105.14,0,0,0,13.4,16.3,110.33,110.33,0,0,0,9.21,8.2,112.73,112.73,0,0,0,11,7.6A107.58,107.58,0,0,0,246.54,477a110.28,110.28,0,0,0,32.53,3.65,111.85,111.85,0,0,0,17.28-2,67,67,0,0,0,17.37-5.8,69.54,69.54,0,0,0,14.9-10.6,82.12,82.12,0,0,0,6.18-6.2l2.9-3.18,1.44-1.58c.47-.53.9-1.1,1.34-1.65l2.63-3.3,1.31-1.65a20,20,0,0,0,1.24-1.67l4.7-6.76,4.19-6.87c1.35-2.27,2.52-4.61,3.76-6.88a211.3,211.3,0,0,0,11.51-26.8c.77-2.15,1.43-4.28,2.12-6.37.34-1,.68-2.07,1-3.1l.9-3.06c.59-2,1.17-4,1.73-5.95l1.49-5.72c3.82-14.94,6-27.17,7.37-35.63s1.77-13.22,1.24-13.33-2,4.42-4.28,12.67-5.32,20.23-9.77,34.76c-.56,1.81-1.14,3.66-1.72,5.56L368,381.26c-.33,1-.66,2-1,3l-1.09,3c-.76,2-1.47,4.08-2.28,6.14A222.73,222.73,0,0,1,351.8,419c-1.23,2.15-2.39,4.38-3.72,6.53L344,432l-4.54,6.36a18,18,0,0,1-1.2,1.56L337,441.46l-2.52,3.1c-.43.52-.83,1.05-1.28,1.55l-1.37,1.48c-.91,1-1.83,2-2.76,3a78.53,78.53,0,0,1-5.79,5.75A62.81,62.81,0,0,1,310.07,465.68Z"/><path class="cls-1" d="M152.27,331.09a318.92,318.92,0,0,0,6,34.11c1.29,5.16,2.49,10.08,3.89,14.6.68,2.26,1.29,4.46,2,6.54l2,6c1.27,3.82,2.67,7.18,3.86,10.14.61,1.47,1.16,2.85,1.72,4.09s1.12,2.37,1.62,3.38c2,4,3.34,6.16,3.85,6s.16-2.7-.93-7c-.27-1.08-.58-2.28-.94-3.58L174.25,401c-.77-3.06-1.78-6.49-2.68-10.34l-1.52-6c-.53-2.09-1-4.28-1.51-6.54-1.1-4.51-2-9.38-3.1-14.48-2-10.23-3.81-21.53-5.22-33.46s-2.09-23.37-2.51-33.78c-.12-5.21-.32-10.16-.26-14.8,0-2.32-.06-4.56,0-6.72l.11-6.2c0-4,.21-7.53.27-10.68,0-1.57.06-3,.09-4.39s.09-2.59.11-3.7c.07-4.46-.15-7-.69-7s-1.38,2.29-2.41,6.67c-.25,1.1-.52,2.32-.8,3.66s-.49,2.81-.75,4.38c-.49,3.16-1.09,6.75-1.46,10.75l-.63,6.28c-.21,2.18-.3,4.46-.46,6.82-.34,4.72-.39,9.78-.47,15.1A317,317,0,0,0,152.27,331.09Z"/><path class="cls-1" d="M190,199.35c4-1.6,8.63-1.72,13.34-1.39s9.48.9,13.89,1.53a235.91,235.91,0,0,1,23.35,4.59c13.19,3.31,21.25,6.15,21.73,5.07.22-.49-1.5-1.88-4.93-3.77a108.05,108.05,0,0,0-15.15-6.71,155.84,155.84,0,0,0-23.79-6.46c-4.59-.86-9.37-1.57-14.49-2.06a50.06,50.06,0,0,0-8.17-.15,28.87,28.87,0,0,0-8.76,1.93,30.49,30.49,0,0,0-7.66,4.57,46.18,46.18,0,0,0-5.89,5.79c-1.74,2-3.23,4-4.67,6.05s-2.75,4.07-4,6.1a82.14,82.14,0,0,0-9.52,23.19,57.5,57.5,0,0,0-1.59,16.75c.08,1,.15,1.87.26,2.63s.26,1.39.4,1.9c.27,1,.54,1.55.82,1.54s.54-.55.79-1.56c.12-.5.25-1.12.36-1.84s.32-1.56.48-2.5a96.71,96.71,0,0,1,3.92-15.36,93.79,93.79,0,0,1,10.33-20.84c1.2-1.83,2.5-3.67,3.88-5.5s2.83-3.68,4.39-5.39C182.45,204,186,201,190,199.35Z"/><path class="cls-1" d="M210.76,248.2a197.82,197.82,0,0,0,23.07,1.1q5.59-.06,11-.41l2.67-.2,4.59-.4a33.82,33.82,0,0,0,4.5-.7l2.11-.4c.07,0,0-.06,0-.1l-.06-.13-.1-.27-.22-.53-.42-1.07c-.56-1.39-1.06-2.72-1.69-4.08-.16-.34-.29-.67-.46-1l-.58-1c-.39-.67-.75-1.34-1.21-2l-.54-.77-.42-.55-.88-1.07c-.6-.69-1.21-1.35-1.86-2a34.79,34.79,0,0,0-8.3-6,47.32,47.32,0,0,0-17-4.77,73.56,73.56,0,0,0-7.5-.38,57,57,0,0,0-6.74.27,21.44,21.44,0,0,0-6,1.52,14.22,14.22,0,0,0-4.41,3,20.51,20.51,0,0,0-3.92,5.68c-.64,1.4-.84,2.2-.61,2.35s.88-.36,1.94-1.43a35.34,35.34,0,0,1,4.61-4.23A12.06,12.06,0,0,1,206,226.9a19.27,19.27,0,0,1,5-.64c1.87,0,4,.15,6.2.35s4.57.48,7,.91a44,44,0,0,1,14.61,5,29,29,0,0,1,6.49,5.1c.49.5.94,1,1.39,1.58l.63.85a3.3,3.3,0,0,1,.3.43l.15.21v0a1.81,1.81,0,0,1,.12.38v.07h-.4c-.06,0,.12,0-.48,0l-2.58.13c-3.45.15-7,.22-10.58.2a220.28,220.28,0,0,1-22.19-1.21c-2-.22-4.1-.47-6.07-.73a43.89,43.89,0,0,1-5.54-1.07,17.19,17.19,0,0,1-4.54-1.86,9.7,9.7,0,0,1-.91-.62l-.42-.33-.19-.18c-.06-.05,0,0,0,0a.09.09,0,0,1,0,0s0,0,0-.06h0l.13-.22.28-.46.58-.9c.77-1.19,1.6-2.34,2.47-3.43a43.71,43.71,0,0,1,5.69-5.9,13,13,0,0,1,6-3.13,32,32,0,0,1,7.32-.54c2.55.05,5.29.12,7.86,0s5.06-.25,7.44-.48c4.76-.47,9.1-1.18,13-1.93s7.38-1.55,10.4-2.3l4.19-1.07,1.83-.5a8.28,8.28,0,0,0,1.05-.34,3.12,3.12,0,0,0,1.26-.93,2.62,2.62,0,0,0,.52-1.41,3.56,3.56,0,0,0-.09-1.07,4.5,4.5,0,0,0-.68-1.6,4.55,4.55,0,0,0-1.94-1.63c-1.28-.5-2-.17-2,0s.56.47,1.23,1.16a3.69,3.69,0,0,1,.87,1.41,2.44,2.44,0,0,1,.13.93,1.38,1.38,0,0,1-.07.41.18.18,0,0,1-.06.08s.23.13.13.07l-.07-.08-.07-.08s0,0,0,0a.28.28,0,0,0-.12,0l-.65.06-1.89.2-4.27.48c-3.07.36-6.57.79-10.44,1.19s-8.11.77-12.67.93c-2.27.08-4.63.12-7,.05s-4.86-.23-7.6-.4a37,37,0,0,0-9,.35,19.33,19.33,0,0,0-4.92,1.59,22.49,22.49,0,0,0-4.33,2.79,49.22,49.22,0,0,0-6.91,6.79,47.6,47.6,0,0,0-3,4c-.24.34-.47.69-.7,1.05l-.34.53-.46.76c-.37.67-.73,1.34-1.06,2a5.33,5.33,0,0,0,.41,4.7c.25.39.58.75.87,1.13a8.91,8.91,0,0,0,1,1.1l.88.83.74.61c.5.4,1,.74,1.55,1.09a25.19,25.19,0,0,0,6.59,2.83,49.94,49.94,0,0,0,6.55,1.31C206.54,247.72,208.63,248,210.76,248.2Z"/><path class="cls-1" d="M219.43,220.8a16.32,16.32,0,0,0-8,1.25,11,11,0,0,0-3.71,2.84,11.92,11.92,0,0,0-2.14,3.8,20.55,20.55,0,0,0-1,7c0,.53,0,1,0,1.56s0,1,.11,1.63c0,.31.08.64.14,1a9.62,9.62,0,0,0,.31,1.23,7.47,7.47,0,0,0,1.22,2.34,7.64,7.64,0,0,0,3.64,2.47,12.12,12.12,0,0,0,3.2.52c.95,0,1.66,0,2.39,0l2.19,0,8.22-.13c5.19-.12,9.76-.29,13.55-.53,7.59-.46,12-1.14,12.07-2s-4.4-1.75-11.95-2.59c-3.78-.42-8.34-.82-13.52-1.19l-8.2-.53-2.18-.12c-.74-.05-1.52-.08-2.08-.14a4.48,4.48,0,0,1-1.27-.26.23.23,0,0,1-.11-.13s0-.06,0-.09,0,0,0-.12l0-.4c0-.3,0-.73,0-1.17s0-.86,0-1.28a13.68,13.68,0,0,1,.69-4.4,3.38,3.38,0,0,1,1.82-2.1,8.86,8.86,0,0,1,4.08-.48A13.85,13.85,0,0,1,224,230a7.43,7.43,0,0,1,1.81,1.17,5.92,5.92,0,0,1,1.21,1.51,7,7,0,0,1,.87,3.9,6.23,6.23,0,0,1-.4,1.85l-.18.42c-.05.09,0,.05,0,.09a.21.21,0,0,1-.06.1c.66.07-2.29.25-3.92.39-1.83.13-3.6.24-5.29.3a51.28,51.28,0,0,1-9.18-.42,31.68,31.68,0,0,1-3.84-.8,18.76,18.76,0,0,1-3.17-1.11,5.94,5.94,0,0,1-3.29-3,4.65,4.65,0,0,1-.14-2.94c.21-.72.5-1.15.33-1.39s-.77-.25-1.63.44a5.32,5.32,0,0,0-1.62,4.44,7.06,7.06,0,0,0,1.18,3.41,11,11,0,0,0,2.85,2.89,20.27,20.27,0,0,0,3.75,2.06,31,31,0,0,0,4.39,1.55A48.17,48.17,0,0,0,218,246.32c1.84.09,3.72.11,5.64.1l2.89,0a18.57,18.57,0,0,0,1.91-.09,6.6,6.6,0,0,0,4.75-2.75,10.21,10.21,0,0,0,.76-1.19l.48-1a13.29,13.29,0,0,0,1.11-4.09,14.49,14.49,0,0,0-1.57-8.38,13.62,13.62,0,0,0-2.78-3.62,15.16,15.16,0,0,0-3.68-2.5A21.56,21.56,0,0,0,219.43,220.8Z"/><path class="cls-1" d="M215.12,234.18a8.81,8.81,0,0,0,.71,4.18,6.72,6.72,0,0,0,2.25,2.78,4.34,4.34,0,0,0,1.27.61,2.64,2.64,0,0,0,1.13.12,1.88,1.88,0,0,0,1.45-.84,8.86,8.86,0,0,0,.76-3.16c.07-.5.18-1,.24-1.49a15.24,15.24,0,0,0,.16-1.56,14.31,14.31,0,0,0,.09-1.57c0-.49,0-1,0-1.51a9,9,0,0,0-.26-3.25,1.88,1.88,0,0,0-1.3-1.05,2.48,2.48,0,0,0-1.13-.06,4.12,4.12,0,0,0-1.35.4,6.65,6.65,0,0,0-2.66,2.38A8.75,8.75,0,0,0,215.12,234.18Z"/><path class="cls-1" d="M267,283a52.72,52.72,0,0,1-5.07,8.72c-1.94,2.75-4.07,5.46-5.95,8.34a35.66,35.66,0,0,0-4.43,9.08,21,21,0,0,0-.82,9.21,14.82,14.82,0,0,0,3.09,7.17,12,12,0,0,0,4.53,3.58,7.56,7.56,0,0,0,3.54.71c.83-.09,1.24-.33,1.26-.59.08-.6-1.41-1.1-3.13-2.75a11.82,11.82,0,0,1-2.47-3.41,11.57,11.57,0,0,1-1.19-5.19,17.12,17.12,0,0,1,1.45-6.52,33.23,33.23,0,0,1,4.22-7.08c1.82-2.44,4-5,6.23-7.93a52.69,52.69,0,0,0,6-10,51.63,51.63,0,0,0,4.72-22,30.42,30.42,0,0,0-1.8-10.13,20,20,0,0,0-5.13-7.81,16.46,16.46,0,0,0-6.76-3.66,12.52,12.52,0,0,0-5.73-.25,7.85,7.85,0,0,0-3.29,1.41c-.63.55-.86.94-.73,1.19.26.54,1.78.15,4.16.51a12.86,12.86,0,0,1,4.05,1.34,14.41,14.41,0,0,1,2.21,1.42,15,15,0,0,1,2.06,2,16,16,0,0,1,2.86,5.9,27.16,27.16,0,0,1,.73,8A51.92,51.92,0,0,1,267,283Z"/><path class="cls-1" d="M272,327.16c2.55.07,5.28.63,6.11.67a3.22,3.22,0,0,1,1.52.52,11.75,11.75,0,0,0,1.38,1c.48.21,1.22.05,1.73-.93a4.57,4.57,0,0,0-.4-4.3,9.44,9.44,0,0,0-4.31-3.57,15.32,15.32,0,0,0-11.57-.41,8.83,8.83,0,0,0-4.63,3.54,4.46,4.46,0,0,0-.3,4.39c.57,1,1.33,1.08,1.8.83s.83-.75,1.31-1a2.57,2.57,0,0,1,1.45-.47c.47,0,1.07,0,2.2-.11A34.51,34.51,0,0,1,272,327.16Z"/><path class="cls-1" d="M301.92,332.28a18,18,0,0,1,6.4-2.78,15.71,15.71,0,0,1,1.59-.29c.26,0,.52-.08.77-.09.07,0,.1-.07.17-.1a1.25,1.25,0,0,1,1-.11,1.44,1.44,0,0,1,.76.79,3.15,3.15,0,0,1,.22,1.16c.05.37-.08,1,0,1.33a1.13,1.13,0,0,0,.36.86,1.09,1.09,0,0,0,.92.13,3.28,3.28,0,0,0,1.51-.83,6.07,6.07,0,0,0,1.76-2.64,5.56,5.56,0,0,0-.3-4.25,5.75,5.75,0,0,0-4.48-2.94,12.76,12.76,0,0,0-1.66-.24c-.38,0-.75-.08-1.14-.11a19,19,0,0,0-2.38,0,19.87,19.87,0,0,0-10,3.5l-1.79,1.25a7,7,0,0,1-1.21.68,11.56,11.56,0,0,1-3,.72c-1.13.14-2.46.22-3.59.32a23.56,23.56,0,0,1-2.62.14,4.79,4.79,0,0,1-1.6-.25,4.87,4.87,0,0,1-1.18-.67c-.68-.54-1-1.24-1.51-1.33a1,1,0,0,0-.9.41,2.69,2.69,0,0,0-.58,1.79,5.33,5.33,0,0,0,1,2.9,7.34,7.34,0,0,0,3.13,2.55,14.65,14.65,0,0,0,4,1.09,34.1,34.1,0,0,0,4.14.41A15.73,15.73,0,0,0,297,335a13.18,13.18,0,0,0,2.83-1.34C300.68,333.16,301.35,332.67,301.92,332.28Z"/><path class="cls-1" d="M297.33,333.32a24.65,24.65,0,0,0-3.6,1.84,22.47,22.47,0,0,0-3,2.24,13.83,13.83,0,0,0-4,5.57,7.77,7.77,0,0,0-.35,4.7c.33,1.12.92,1.62,1.46,1.59s1.05-.51,1.62-1.15a29.91,29.91,0,0,1,2.16-2.29,19.25,19.25,0,0,1,3.51-2.52c.74-.43,1.56-.86,2.47-1.3s1.85-.9,2.73-1.25a13.44,13.44,0,0,1,2.46-.76c.83-.18,1.82-.3,2.89-.45a22.06,22.06,0,0,0,3.34-.69,10.35,10.35,0,0,0,3.13-1.51,6.46,6.46,0,0,0,2.86-4.29c.12-1.31-.43-2-.94-2a4,4,0,0,0-1.81.58,10.23,10.23,0,0,1-2.6.65,9.3,9.3,0,0,1-1.78.05l-2.56-.13a22.72,22.72,0,0,0-3.65.05A16,16,0,0,0,297.33,333.32Z"/><path class="cls-1" d="M308,357.57a86.43,86.43,0,0,1,8.88,2.87,42.66,42.66,0,0,0,8.34,2.21,15.44,15.44,0,0,0,6.15-.23c1.44-.5,2.13-1.05,2.08-1.6s-.8-1.06-2-1.51-2.78-1.13-4.72-2.1-4.25-2.16-7-3.55a44.21,44.21,0,0,0-10-3.89,27.91,27.91,0,0,0-3.06-.52l-1.56-.06a9.05,9.05,0,0,0-1.56,0,19.19,19.19,0,0,0-3,.4c-.91.2-1.72.43-2.45.64a34.6,34.6,0,0,1-3.57.92,6.36,6.36,0,0,1-1.24.1,4.43,4.43,0,0,1-1-.1,5.79,5.79,0,0,1-3-2.22c-.67-.87-1-1.62-1.6-1.7s-1.29.62-1.45,2.33a6.64,6.64,0,0,0,.52,3.07,8,8,0,0,0,2.73,3.43,9.91,9.91,0,0,0,5.11,1.72,22.92,22.92,0,0,0,5.08-.35c.78-.12,1.51-.23,2.19-.31a14.36,14.36,0,0,1,1.94-.09,4.73,4.73,0,0,1,1,0l1,.08C306.6,357.32,307.29,357.35,308,357.57Z"/><path class="cls-1" d="M250.63,377.31c-2.78-1.37-5.54-2.91-8.32-4.43l-8.06-4.39a1.75,1.75,0,0,1-.4-.11l-.09,0,0,0,0-.05.19-.12.14-.07,0,0,.06,0,.25-.06,1-.24,3.9-.9c2.56-.57,5.06-1.1,7.48-1.58,4.85-1,9.39-1.74,13.54-2.4,8.32-1.31,15.12-2.1,19.82-2.75s7.34-1.14,7.33-1.71-2.64-1.09-7.44-1.4a154.82,154.82,0,0,0-20.35.24c-4.29.31-9,.79-14,1.48Q242,359.26,238,360l-4,.75-2.69.56c-1.3.27-2.61.57-3.9.89l-7.92,1.92-4.1,1-2.06.51,1.77,1,7.29,4.2,7.81,4.38,8.28,4.64c2.75,1.54,5.58,3.14,8.62,4.65a58.62,58.62,0,0,0,9.51,3.81,57.46,57.46,0,0,0,9.78,2,83.82,83.82,0,0,0,18.42-.06c5.77-.6,11.11-1.56,16.06-2.52,2.46-.49,4.83-.94,7.21-1.52a36.52,36.52,0,0,0,6.85-2.3,28.29,28.29,0,0,0,9.78-7.75,44,44,0,0,0,5-7.51c2.24-4.32,3-6.88,2.57-7.15s-2.21,1.78-5.16,5.43a62.6,62.6,0,0,1-5.64,6.17,25.58,25.58,0,0,1-8.7,5.59c-3.52,1.31-8,1.8-13,2.5s-10.15,1.35-15.59,1.72a84.66,84.66,0,0,1-16.8-.37,52.73,52.73,0,0,1-8.45-1.86A51.23,51.23,0,0,1,250.63,377.31Z"/><path class="cls-1" d="M411,677.37c4.12,5.75,8.42,11.24,12.68,16.66a148.19,148.19,0,0,0,13.9,15.79,69.23,69.23,0,0,0,8.31,6.81,52.67,52.67,0,0,0,9.46,5.24,76.11,76.11,0,0,0,20.21,5.24c6.73.89,13.34,1.21,19.78,1.5l19.16.82,18.77.6,18.35.43c48.34.87,91.85.07,128.36-1s66-2.44,86.41-3.53c10.2-.56,18.11-1.06,23.47-1.49s8.18-.79,8.17-1.07-2.84-.45-8.22-.54-13.3-.09-23.51,0l-86.43,1c-36.48.31-79.91.52-128.08-.75l-18.28-.57-18.7-.73-19.08-.91c-6.43-.33-12.84-.68-19.12-1.54a69,69,0,0,1-18.12-4.72,52.07,52.07,0,0,1-15.42-10.56,143.07,143.07,0,0,1-13.12-15c-4.23-5.39-8.46-10.81-12.45-16.38a152.26,152.26,0,0,1-10.8-17.09,83.67,83.67,0,0,1-7.26-18.09,56.94,56.94,0,0,1-1.81-18.73,113.46,113.46,0,0,1,3.29-18.89c1.53-6.3,3.28-12.62,4.61-19.1a78.71,78.71,0,0,0,1.89-20,47.43,47.43,0,0,0-1.58-10.09,46.22,46.22,0,0,0-9.37-17.66,57.66,57.66,0,0,0-6.84-6.87,82.66,82.66,0,0,0-7.45-5.7c-2.54-1.75-5.12-3.36-7.69-4.89-5.16-3.06-10.3-5.8-15.28-8.55-9.94-5.47-19.37-11-26.68-18.13a45.51,45.51,0,0,1-5-5.61,57.73,57.73,0,0,1-4.2-6.08c-.59-1.07-1.13-2.17-1.7-3.24l-.83-1.61-.69-1.68c-.44-1.12-.93-2.22-1.35-3.35s-.71-2.28-1.07-3.41c-.17-.58-.38-1.13-.51-1.71l-.4-1.73c-.25-1.15-.55-2.29-.77-3.44l-.54-3.47c-.09-.57-.19-1.14-.26-1.72l-.15-1.73-.3-3.43c-.06-1.14-.07-2.28-.11-3.41-.11-2.26,0-4.51.07-6.73a123.44,123.44,0,0,1,3.84-25.15c1-3.92,2.13-7.64,3.33-11.32a77.27,77.27,0,0,0,3-11.17,26.15,26.15,0,0,0-.31-11.32,23.35,23.35,0,0,0-5-9.26,32.36,32.36,0,0,0-15-9.4,46.9,46.9,0,0,0-13.83-1.67,79.11,79.11,0,0,0-10,.86c-5.35.79-8.1,1.47-8.07,1.73s2.88.14,8.22-.13c2.67-.11,6-.26,9.83-.08a47.23,47.23,0,0,1,12.92,2.25,29.61,29.61,0,0,1,13.07,8.9,19.33,19.33,0,0,1,3.89,7.82,21.77,21.77,0,0,1-.06,9.5,76.31,76.31,0,0,1-3.17,10.42c-1.3,3.66-2.6,7.54-3.72,11.56a126.73,126.73,0,0,0-4.57,26.15c-.1,2.34-.28,4.7-.21,7.11,0,1.21,0,2.42.05,3.63s.17,2.44.25,3.67c0,.62.09,1.24.13,1.86s.17,1.23.25,1.85l.51,3.74c.22,1.25.52,2.49.78,3.75l.4,1.89c.13.63.35,1.25.53,1.87.37,1.25.74,2.5,1.11,3.77s.95,2.46,1.43,3.71L315,475l.9,1.82c.61,1.2,1.19,2.43,1.84,3.63a63.8,63.8,0,0,0,4.59,6.88,52.66,52.66,0,0,0,5.52,6.35c8,8,17.93,13.89,27.9,19.54,5,2.83,10.06,5.6,15,8.59,2.47,1.5,4.9,3.05,7.25,4.7a74.11,74.11,0,0,1,6.78,5.28,49.42,49.42,0,0,1,5.95,6.07,38.78,38.78,0,0,1,7.77,14.86,39.92,39.92,0,0,1,1.27,8.51,71.6,71.6,0,0,1-1.84,18c-1.3,6.14-3,12.36-4.64,18.82a120.11,120.11,0,0,0-3.57,20.2,64.83,64.83,0,0,0,2,21.27,90.59,90.59,0,0,0,7.92,19.86A157.9,157.9,0,0,0,411,677.37Z"/></g></g></svg>