<svg xmlns="http://www.w3.org/2000/svg" viewBox="0 0 690.26 634.25"><defs><style>.cls-1{fill:#003b36;}</style></defs><title>erica-portrait</title><g id="Layer_2" data-name="Layer 2"><g id="Layer_1-2" data-name="Layer 1"><path class="cls-1" d="M431.55,476.31a56.33,56.33,0,0,0-1.4-9.9,34.22,34.22,0,0,0-1.52-4.86c-.31-.78-.58-1.59-.93-2.35L426.6,457a60.7,60.7,0,0,0-11.54-15.22c-4.32-4.34-8.79-8.13-13-11.85a129.45,129.45,0,0,1-11.6-11.22,65.16,65.16,0,0,1-8.55-12.26,79.1,79.1,0,0,1-5.53-13.15,105.14,105.14,0,0,1-4.64-25.51,177.1,177.1,0,0,1,.12-21.75c.4-6.44.95-12,1.38-16.54.9-9.1,1.25-14.19.69-14.28S372,320,370.15,329c-.9,4.51-1.91,10.06-2.75,16.58A155.31,155.31,0,0,0,366.08,368,105.08,105.08,0,0,0,370,395.18a83.27,83.27,0,0,0,5.65,14.48,70.61,70.61,0,0,0,9.21,13.82c7.37,8.7,16.66,15.65,24.59,23.75a54.05,54.05,0,0,1,10,13.33l.9,1.85c.28.63.49,1.28.74,1.92a26.48,26.48,0,0,1,1.23,3.94,49.55,49.55,0,0,1,1.18,8.52c.18,3,.19,6,.14,9s-.13,6.08-.23,9.09q-.37,9.11-.75,17.92a283.25,283.25,0,0,0,.16,34.4,141.51,141.51,0,0,0,2.23,16.08c.28,1.29.56,2.57.83,3.84.16.65.38,1.35.57,2l.29,1,.38,1a33,33,0,0,0,3.75,7.2,41.53,41.53,0,0,0,4.93,5.91A51.18,51.18,0,0,0,441.4,589a68.88,68.88,0,0,0,11.51,6.85,110.18,110.18,0,0,0,21.32,7.43,136.66,136.66,0,0,0,16.63,3c9.2,1,14.33.71,14.36.21s-5-1.33-13.85-3.28c-4.43-1-9.83-2.3-15.94-4.23a117,117,0,0,1-20-8.17,65.94,65.94,0,0,1-10.29-6.69,45.56,45.56,0,0,1-4.72-4.31,35.24,35.24,0,0,1-4-5.09,26.78,26.78,0,0,1-2.85-5.87l-.28-.78-.21-.8c-.13-.54-.28-1-.41-1.62L432,562a138.52,138.52,0,0,1-1.79-15.29,299.77,299.77,0,0,1,.32-33.51c.29-5.86.63-11.86.88-18,.11-3.07.21-6.16.25-9.29S431.74,479.59,431.55,476.31Z"/><path class="cls-1" d="M191.17,4.27a100.15,100.15,0,0,0-13.52,5.6c-2.19,1-4.3,2.24-6.42,3.4L165.12,17a203.79,203.79,0,0,0-22.71,16.84C128.18,45.93,115.69,59.4,104.13,73c-5.8,6.81-11.38,13.67-16.86,20.48-2.74,3.41-5.46,6.75-8.17,10.22a109,109,0,0,0-7.64,11,60.46,60.46,0,0,0-3.18,6l-.68,1.57-.6,1.6c-.37,1.08-.84,2.13-1.13,3.22a70.84,70.84,0,0,0-2.64,13.06A127.47,127.47,0,0,0,62.61,153c0,4.21.13,8.35.25,12.42.21,8.13.41,16.06-.58,23.6a93.85,93.85,0,0,1-5.83,21.87C51,225,43.77,238.51,39.89,253.09a112.1,112.1,0,0,0-3.49,21.72c-.5,7.14-.5,14.13-.32,20.92.42,13.57,1.14,26.44,1.56,38.77.93,24.63.88,46.89-1,66.3-.92,9.71-2.07,18.74-3.55,26.93a181.22,181.22,0,0,1-5.38,22.11,142,142,0,0,1-6.52,17c-.52,1.21-1.09,2.34-1.63,3.44s-1,2.14-1.55,3.13c-1.06,2-2,3.77-2.87,5.34l-2.37,4.16-1.77,3c-.94,1.61-1.36,2.48-1.25,2.56s.76-.63,1.92-2.1c.58-.74,1.3-1.66,2.12-2.78l2.72-4c1-1.52,2.06-3.29,3.25-5.21.58-1,1.14-2,1.74-3.09s1.25-2.2,1.83-3.41a131.05,131.05,0,0,0,7.33-17,171.5,171.5,0,0,0,6.17-22.37c1.74-8.31,3.11-17.39,4.26-27.2,2.32-19.64,2.76-42.17,2.2-66.92-.24-12.36-.8-25.35-1-38.74-.1-6.68,0-13.47.53-20.31a107.1,107.1,0,0,1,3.5-20.46C50,241.27,57.21,228.11,63,213.44A101,101,0,0,0,69.43,190c1.14-8.26.95-16.53.8-24.71-.1-4.09-.18-8.16-.18-12.22s.19-8.08.64-12.05a63.64,63.64,0,0,1,2.4-11.61c.26-1,.68-1.85,1-2.77l.52-1.38.59-1.35A55.72,55.72,0,0,1,78,118.6c4.17-6.9,9.83-13.41,15.28-20.23s11.06-13.55,16.8-20.26c11.46-13.42,23.7-26.55,37.47-38.22a197.13,197.13,0,0,1,21.82-16.15l5.84-3.54c2-1.08,3.94-2.2,6-3.17a93.9,93.9,0,0,1,12.5-5.16,66.31,66.31,0,0,1,26-3.7A44.85,44.85,0,0,1,232.07,11l2.83,1.32a8.65,8.65,0,0,1,1.37.75l1.34.8,1.31.79a7.28,7.28,0,0,1,.82.7,9,9,0,0,1,1.52,1.9,8.72,8.72,0,0,1,1,2.17,5.54,5.54,0,0,1,.23,1v.14h0s0,0,0,0h0l.07,0-.14-.07c-.14-.2-.36-.28-.5-.54a5.35,5.35,0,0,1-.83-1.71,8.62,8.62,0,0,1,0-4.48A6.5,6.5,0,0,1,242,12a4.16,4.16,0,0,1,.6-.7,1.89,1.89,0,0,1,.41-.35l.47-.38a12.6,12.6,0,0,1,4.66-1.89,30.57,30.57,0,0,1,11.71.63,112.38,112.38,0,0,1,24,8.46,151.77,151.77,0,0,1,21.75,12.85c6.87,4.8,13.4,10,19.69,15.38s12.42,10.91,18,16.54A84.94,84.94,0,0,1,357.6,80.76a61.22,61.22,0,0,1,6.73,21.08,153.73,153.73,0,0,1,1.17,22.3c0,7.45-.22,14.9.08,22.3s1.12,14.62,2.11,21.64,2.29,13.83,3.63,20.47c2.65,13.27,5.46,25.86,7.43,37.95a193.35,193.35,0,0,1,2.83,34.59,200.9,200.9,0,0,1-3.46,30.83c-3.51,19.2-7.41,35.77-8.87,49.64-.19,1.73-.39,3.41-.55,5.05s-.21,3.23-.31,4.77l-.15,2.28c0,.74,0,1.48,0,2.2,0,1.45,0,2.84,0,4.18a96.92,96.92,0,0,0,1,13.54,57.78,57.78,0,0,0,1.65,8.16c.48,1.82.78,2.72.92,2.69s.09-1-.12-2.85-.71-4.56-.85-8.18a115.08,115.08,0,0,1-.24-13.32c.07-1.32.15-2.69.22-4.1.05-.71.06-1.43.14-2.16s.15-1.47.23-2.23c.16-1.51.32-3.07.49-4.67s.47-3.25.72-4.95c1.9-13.59,6.2-29.89,10.17-49.22a199.69,199.69,0,0,0,4.16-31.5,196.88,196.88,0,0,0-2.33-35.62c-1.82-12.33-4.49-25-7-38.25q-1.87-9.9-3.34-20.19c-.89-6.87-1.58-13.87-1.83-21s0-14.45.13-22a159.82,159.82,0,0,0-1-23.34,76,76,0,0,0-2.56-12l-1-3c-.38-1-.76-2-1.15-2.93a58.12,58.12,0,0,0-2.7-5.7,91.51,91.51,0,0,0-15.3-19.92c-5.88-6-12-11.51-18.4-17.08S317.14,29.38,310,24.36a159.22,159.22,0,0,0-22.76-13.57,119.58,119.58,0,0,0-25.7-9.13A37.58,37.58,0,0,0,246.7,1,20.25,20.25,0,0,0,239,4.12l-.86.66a6.47,6.47,0,0,0-.87.76,11.18,11.18,0,0,0-1.61,1.84,14.27,14.27,0,0,0-2.08,4.19,16.51,16.51,0,0,0-.09,8.93,13.07,13.07,0,0,0,2.16,4.36,12,12,0,0,0,1.85,1.93c.18.14.38.27.57.4l.79.49a6.79,6.79,0,0,0,1.56.68,7.1,7.1,0,0,0,8.54-2.58,9.31,9.31,0,0,0,.8-1.41,9.67,9.67,0,0,0,.5-1.58,15.73,15.73,0,0,0,.21-1.68,8.63,8.63,0,0,0,0-.87l0-.7a14.06,14.06,0,0,0-.51-2.36A16,16,0,0,0,248,13.11a17.45,17.45,0,0,0-2.77-3.47,16,16,0,0,0-1.82-1.51c-.57-.37-1.09-.67-1.64-1l-1.62-1a13.45,13.45,0,0,0-1.66-.92l-3.45-1.59A52.58,52.58,0,0,0,220.41.21a64.39,64.39,0,0,0-14.89.58A82.51,82.51,0,0,0,191.17,4.27Z"/><path class="cls-1" d="M89.38,500.28a169.82,169.82,0,0,1,3.64-38A175.31,175.31,0,0,1,104.66,427c4.94-11.28,10.46-22.24,15.32-33.35s9.06-22.46,11.19-34.16c.64-2.9.91-5.86,1.28-8.77.19-1.46.19-2.93.28-4.39s.2-2.92.14-4.37a102,102,0,0,0-1.54-17c-1.89-11-5.06-21.24-8.1-31s-5.93-19-8.23-28.12-4.14-17.88-5.46-26.34a192.58,192.58,0,0,1-2-46,150.79,150.79,0,0,1,6.81-34.1,140.08,140.08,0,0,1,8.56-20.35c.59-1.12,1.07-2.14,1.54-3s.85-1.56,1.14-2.15c.6-1.16.85-1.8.73-1.88s-.59.41-1.41,1.44q-.62.76-1.5,1.95c-.58.78-1.18,1.74-1.89,2.81a109.15,109.15,0,0,0-10.1,20.12,143.28,143.28,0,0,0-8.33,34.7,190.14,190.14,0,0,0,.83,47.25c1.17,8.69,2.86,17.72,5.07,27s4.94,18.86,7.88,28.59,5.84,19.75,7.5,30.17A97.3,97.3,0,0,1,125.66,342c0,1.34-.1,2.68-.17,4s-.11,2.69-.29,4c-.38,2.69-.64,5.41-1.27,8.11-2.07,10.86-6.18,21.64-11,32.47s-10.38,21.74-15.49,33.27a180.84,180.84,0,0,0-12.25,36.77,174.49,174.49,0,0,0,15.09,115.77c1.38,2.9,3,5.59,4.34,8.26a59.27,59.27,0,0,1,3.51,7.87c1.82,5.22,1.95,10.32-.11,15a27.64,27.64,0,0,1-10,11.74,40.89,40.89,0,0,1-14.69,5.89,97.11,97.11,0,0,1-16.23,1.75c-5.53.2-10.93.32-16.16,0a76.56,76.56,0,0,1-7.67-.82,54,54,0,0,1-7.23-1.71,30.19,30.19,0,0,1-12-7,27.78,27.78,0,0,1-6.93-11.37,48.58,48.58,0,0,1-2.15-13.35,96.75,96.75,0,0,1,.62-13.44c.48-4.39,1.18-8.8,1.69-13.15,1.06-8.68,1.61-17.29.09-25.42a40.12,40.12,0,0,0-3.88-11.42c-.49-.86-.92-1.74-1.45-2.54s-1.05-1.59-1.58-2.33c-1.05-1.48-2.09-2.86-3-4.22a20.41,20.41,0,0,1-2.18-4.07,18.59,18.59,0,0,1-1.14-4.22,25.57,25.57,0,0,1,.36-8.48,48.72,48.72,0,0,1,5.86-14.33c2.42-4.11,4.83-7.69,6.76-10.92a68.06,68.06,0,0,0,4.46-8.45c2-4.8,2.27-7.57,2-7.61s-1.08,2.49-3.5,6.9a89,89,0,0,1-5,7.87c-2.12,3-4.71,6.46-7.42,10.57A50.45,50.45,0,0,0,.89,502.59a29.36,29.36,0,0,0-.76,9.84A24,24,0,0,0,3.79,522.6c1.91,3.11,4.11,5.8,5.53,8.87a35.41,35.41,0,0,1,3.13,10.11c1.18,7.3.53,15.35-.69,23.81s-3,17.61-2.87,27.48A54.23,54.23,0,0,0,11.11,608a34.1,34.1,0,0,0,8.36,14.12A36.65,36.65,0,0,0,34,630.89,59.89,59.89,0,0,0,42.19,633a84.17,84.17,0,0,0,8.37,1c5.61.4,11.23.33,16.86.19A103.31,103.31,0,0,0,84.9,632.4a56.76,56.76,0,0,0,8.88-2.53,40.66,40.66,0,0,0,8.53-4.36,35.1,35.1,0,0,0,12.8-15,26.25,26.25,0,0,0,2.17-10.27,31.71,31.71,0,0,0-1.76-10.2c-2.15-6.4-5.59-11.79-8.22-17.22A168.87,168.87,0,0,1,89.38,500.28Z"/><path class="cls-1" d="M249.87,85.35a198.33,198.33,0,0,1,30.58,1.85c9.81,1.34,19.09,3.38,27,7a56.52,56.52,0,0,1,30.3,33.67,78.17,78.17,0,0,1,3.49,18c.47,5.45.51,10.22.56,14.13,0,7.82.12,12.21.69,12.25s1.48-4.22,2.42-12.09a121,121,0,0,0,.8-14.5,76.16,76.16,0,0,0-2.55-19.38,60,60,0,0,0-10.9-21.43,62.35,62.35,0,0,0-21.66-17.28c-8.9-4.32-18.89-6.61-29.05-8.11a193.75,193.75,0,0,0-31.84-2.1A201.14,201.14,0,0,0,218,80.41,184.08,184.08,0,0,0,189.26,88a144.86,144.86,0,0,0-43.83,24.51,109.68,109.68,0,0,0-13.83,13.54,87.6,87.6,0,0,0-8.58,11.8c-.51.86-1,1.65-1.44,2.43l-1.14,2.21-1,1.9-.66,1.64c-.77,2-1,3-.8,3.16s1-.71,2.21-2.38l1-1.42,1.25-1.66,1.42-2c.5-.7,1.1-1.4,1.69-2.16A121,121,0,0,1,148.93,117a151.23,151.23,0,0,1,42.74-22,191.46,191.46,0,0,1,27.68-6.87A206.18,206.18,0,0,1,249.87,85.35Z"/><ellipse class="cls-1" cx="337.68" cy="228.79" rx="64.72" ry="4" transform="translate(77.46 542.89) rotate(-84.48)"/><path class="cls-1" d="M268.12,402.69A51.58,51.58,0,0,1,255,407.06a90.81,90.81,0,0,1-39.86-.79A91,91,0,0,1,193,397.63a93.06,93.06,0,0,1-9.16-5.8,97.05,97.05,0,0,1-7.81-6.32,101.48,101.48,0,0,1-19.27-23.61c-3.7-6.27-5.4-10-6-9.8s.25,4.28,3.21,11.23a87,87,0,0,0,18.14,26.28,93.9,93.9,0,0,0,8,7.14,94.94,94.94,0,0,0,9.58,6.63,93.45,93.45,0,0,0,23.66,10,95.17,95.17,0,0,0,43.3,1.45,58.29,58.29,0,0,0,15.16-5.06,60.5,60.5,0,0,0,13-9.24,73.75,73.75,0,0,0,5.37-5.39l2.52-2.77L293.9,391c.41-.46.77-1,1.16-1.43,1.51-1.94,3.09-3.8,4.5-5.76l4.07-5.87,3.62-6c1.18-2,2.18-4,3.26-6a182.15,182.15,0,0,0,9.93-23.25c.66-1.86,1.23-3.71,1.82-5.52.3-.9.59-1.8.87-2.68s.52-1.78.78-2.66q.75-2.62,1.48-5.15c.43-1.7.86-3.35,1.27-5,3.26-12.93,5.09-23.53,6.21-30.86s1.4-11.46.87-11.57-1.88,3.79-3.91,10.91-4.72,17.46-8.61,30l-1.51,4.8-1.69,5-.86,2.56q-.48,1.27-1,2.58c-.65,1.73-1.27,3.51-2,5.29A193.73,193.73,0,0,1,304,362.57c-1.07,1.84-2.06,3.76-3.21,5.61l-3.54,5.58-3.92,5.47c-1.35,1.82-2.85,3.53-4.28,5.34-.37.44-.71.9-1.1,1.33l-1.18,1.27-2.38,2.55a66.31,66.31,0,0,1-5,4.94A54.22,54.22,0,0,1,268.12,402.69Z"/><path class="cls-1" d="M131.39,286.86a266.51,266.51,0,0,0,5.21,29.54c1.12,4.47,2.18,8.71,3.41,12.62.6,2,1.14,3.86,1.75,5.66l1.8,5.16c1.12,3.3,2.36,6.2,3.42,8.75.54,1.27,1,2.46,1.53,3.53s1,2,1.44,2.91c1.79,3.47,3,5.28,3.53,5.08s.27-2.39-.6-6.15c-.46-1.86-1-4.15-1.66-6.8s-1.49-5.62-2.24-9L147.7,333c-.44-1.8-.82-3.7-1.27-5.65-.94-3.9-1.72-8.11-2.63-12.51-1.66-8.84-3.25-18.59-4.46-28.89s-1.82-20.16-2.21-29.15c-.12-4.5-.3-8.77-.28-12.78,0-2-.07-3.94,0-5.8l.06-5.35c0-3.42.13-6.51.15-9.23s0-5.08.08-7c0-3.85-.26-6-.81-6.12s-1.33,2-2.29,5.75c-.23,1-.48,2-.74,3.16s-.46,2.43-.69,3.79c-.45,2.72-1,5.83-1.35,9.29l-.58,5.43c-.19,1.9-.28,3.87-.42,5.91-.32,4.09-.37,8.47-.46,13.08A266.55,266.55,0,0,0,131.39,286.86Z"/><path class="cls-1" d="M164.76,173.4c3.3-1.34,7.24-1.45,11.29-1.18s8.17.76,12,1.29c7.63,1.05,14.45,2.5,20.15,3.84,11.41,2.76,18.43,5.09,18.91,4s-5.85-5.15-17.26-9.43a130.34,130.34,0,0,0-20.59-5.7c-4-.77-8.12-1.39-12.57-1.83a44.19,44.19,0,0,0-7.14-.14,25.47,25.47,0,0,0-7.74,1.71,26.24,26.24,0,0,0-6.76,4,38.67,38.67,0,0,0-5.15,5.07c-1.52,1.75-2.81,3.52-4.06,5.28s-2.38,3.54-3.43,5.31a70.24,70.24,0,0,0-8.17,20.2A48.1,48.1,0,0,0,133,220.47c.08.86.16,1.62.27,2.27a16.38,16.38,0,0,0,.4,1.66c.26.88.54,1.34.81,1.33s.55-.48.8-1.35c.12-.44.25-1,.37-1.6s.3-1.34.45-2.15a91.3,91.3,0,0,1,3.55-13.18,82.72,82.72,0,0,1,9-17.86c1-1.57,2.16-3.15,3.35-4.72s2.44-3.15,3.78-4.61A25.4,25.4,0,0,1,164.76,173.4Z"/><path class="cls-1" d="M182.44,215.68a175.54,175.54,0,0,0,19.21.95c3.11,0,6.17-.13,9.16-.32l2.23-.14,1.59-.12,2.07-.18,8.09-.79-.22-.63-.28-.7-.55-1.37c-.35-.88-.69-1.75-1.06-2.61a25.33,25.33,0,0,0-2.84-5.13c-.15-.2-.3-.41-.46-.61l-.41-.5c-.19-.24-.38-.48-.59-.7-.41-.46-.82-.9-1.25-1.32a30.13,30.13,0,0,0-2.65-2.32,33.48,33.48,0,0,0-11.54-5.67,49.6,49.6,0,0,0-10.84-1.7,65.07,65.07,0,0,0-9.23.13,16.66,16.66,0,0,0-7.67,2.49,14.29,14.29,0,0,0-4,4.3c-1.58,2.64-2,4.19-1.67,4.41s1.52-.93,3.54-2.89a14.65,14.65,0,0,1,3.92-2.77,14.42,14.42,0,0,1,6.15-1,78.73,78.73,0,0,1,8.49.77,48.83,48.83,0,0,1,9.49,2.22,28.29,28.29,0,0,1,9.07,5.09,26.39,26.39,0,0,1,1.94,1.87c.31.33.6.68.89,1,.15.17.28.35.41.53s.09.11.09.12l0,0c.08.19.16.38.08.45l-.34,0-.06,0h-.06l-.53,0-2.14.09c-2.87.1-5.8.15-8.78.12-6-.06-12.11-.4-18.38-1.06-1.75-.19-3.53-.4-5.23-.63a36,36,0,0,1-4.72-.91,14.86,14.86,0,0,1-3.8-1.55,8,8,0,0,1-.74-.51c-.14-.12-.15-.11-.15-.11h0a.1.1,0,0,1,0,0s0,0,0-.05v0l0,0,.12-.19.49-.77c.66-1,1.36-2,2.11-2.93a37.28,37.28,0,0,1,4.83-5,10.92,10.92,0,0,1,5-2.61,27.4,27.4,0,0,1,6.22-.47c2.19,0,4.58.09,6.81,0s4.39-.24,6.45-.45c4.13-.43,7.89-1.06,11.26-1.74s6.38-1.39,9-2.06c1.3-.33,2.5-.66,3.61-1l1.58-.46a6.36,6.36,0,0,0,.91-.3,2.26,2.26,0,0,0,.8-.54,2.2,2.2,0,0,0,.55-1.49,3.71,3.71,0,0,0-.21-1.42,5,5,0,0,0-1.65-2.29,3.4,3.4,0,0,0-.66-.37,2.33,2.33,0,0,0-.6-.13,2.86,2.86,0,0,0-.62.1c-.24.09-.26.16-.18.24a4.43,4.43,0,0,1,1.3.53,2.46,2.46,0,0,1,.85,1,1.78,1.78,0,0,1,.17.73.9.9,0,0,1-.24.74.93.93,0,0,1-.42.18c-.15,0-.28,0-.56.05l-1.64.15-3.7.38-9,.95c-3.35.32-7,.62-10.93.74-2,.06-4,.08-6.07,0s-4.17-.21-6.55-.37a32.77,32.77,0,0,0-7.87.28,17.4,17.4,0,0,0-4.38,1.4,20.67,20.67,0,0,0-3.84,2.45,44.06,44.06,0,0,0-8.7,9.4l-.61.92-.15.23-.24.4-.51.85c-.33.57-.58,1.17-.86,1.75a5.2,5.2,0,0,0-.26,1.8,5.36,5.36,0,0,0,.59,2.23,12,12,0,0,0,.7,1,6.32,6.32,0,0,0,.79.95l.89.9c.3.3.66.55.84.71a15.79,15.79,0,0,0,1.38,1,22.36,22.36,0,0,0,5.85,2.52,42.94,42.94,0,0,0,5.74,1.16C178.78,215.26,180.59,215.48,182.44,215.68Z"/><path class="cls-1" d="M190,190.9a14.62,14.62,0,0,0-7.11,1.13,10,10,0,0,0-3.4,2.59,10.89,10.89,0,0,0-1.94,3.45,18.21,18.21,0,0,0-.89,6.24c0,.46,0,.92,0,1.36s0,.88.1,1.44a7.83,7.83,0,0,0,1.56,4.23,7,7,0,0,0,3.07,2.18,9.64,9.64,0,0,0,1.83.47c.53.07.93.1,1.35.12s.79,0,1.13,0h1l1.89,0,7.11-.15c4.49-.14,8.45-.33,11.73-.58,6.57-.48,10.43-1.18,10.45-2s-3.8-1.74-10.34-2.55c-3.26-.41-7.2-.79-11.68-1.15l-7.1-.5L186.9,207l-1-.05-.81-.07-.6-.1-.07,0a.46.46,0,0,1-.08-.13.45.45,0,0,1,0-.16c0-.25,0-.62,0-1s0-.73,0-1.09a11.63,11.63,0,0,1,.57-3.62,2.4,2.4,0,0,1,1.3-1.5,7.34,7.34,0,0,1,3.27-.36,11.64,11.64,0,0,1,4.18,1,5.84,5.84,0,0,1,1.44.92,4.43,4.43,0,0,1,.94,1.16,5.54,5.54,0,0,1,.7,3.07,4.79,4.79,0,0,1-.3,1.45c-.08.16,0,.08,0,.11v0a.18.18,0,0,1,0,.1.22.22,0,0,1-.09.07l0,0-.21,0-.31,0-2.43.2c-1.58.12-3.1.23-4.55.28a44.82,44.82,0,0,1-7.86-.28,29.34,29.34,0,0,1-3.28-.64,17.53,17.53,0,0,1-2.71-.9,5.09,5.09,0,0,1-2.79-2.38,3.94,3.94,0,0,1-.23-2.47c.15-.64.36-1,.19-1.24s-.74-.26-1.51.33a4.66,4.66,0,0,0-1.51,3.92,6.32,6.32,0,0,0,1,3.07,9.83,9.83,0,0,0,2.51,2.6,18,18,0,0,0,3.29,1.85,28.19,28.19,0,0,0,3.83,1.39,41.58,41.58,0,0,0,9,1.39c1.6.09,3.23.11,4.9.11l2.5,0,.74,0a9.55,9.55,0,0,0,1.2-.1,6,6,0,0,0,2.26-.77,6.64,6.64,0,0,0,1.83-1.6,9.45,9.45,0,0,0,.7-1c.21-.35.43-.84.55-1.07a12.49,12.49,0,0,0,1-3.69,13.11,13.11,0,0,0-1.41-7.54,12.2,12.2,0,0,0-2.51-3.28,13.37,13.37,0,0,0-3.31-2.25A19.15,19.15,0,0,0,190,190.9Z"/><path class="cls-1" d="M185.72,203a7.76,7.76,0,0,0,.68,3.79,6,6,0,0,0,2.11,2.49,3.68,3.68,0,0,0,1.2.52,2.37,2.37,0,0,0,1,0,2,2,0,0,0,1.39-.89,12.59,12.59,0,0,0,1-3,7.83,7.83,0,0,0,.38-4.81,12.69,12.69,0,0,0-.49-3.07,1.94,1.94,0,0,0-1.23-1.1,2.26,2.26,0,0,0-1-.11,3.4,3.4,0,0,0-1.26.32,6,6,0,0,0-2.49,2.11A7.92,7.92,0,0,0,185.72,203Z"/><path class="cls-1" d="M230.65,245a45.6,45.6,0,0,1-4.31,7.46c-1.66,2.36-3.5,4.72-5.13,7.24a31,31,0,0,0-3.84,8,18.52,18.52,0,0,0-.67,8.15,13,13,0,0,0,2.8,6.33,10.41,10.41,0,0,0,4.06,3.11,6.43,6.43,0,0,0,3.14.54c.74-.11,1.1-.35,1.12-.62.07-.59-1.2-1.1-2.59-2.55a10.41,10.41,0,0,1-2-2.94,9.8,9.8,0,0,1-.9-4.36,14.88,14.88,0,0,1,1.29-5.45,29.14,29.14,0,0,1,3.64-6c1.57-2.09,3.47-4.27,5.41-6.83a46,46,0,0,0,5.26-8.75A44.77,44.77,0,0,0,242,229a26.91,26.91,0,0,0-1.63-8.89,17.67,17.67,0,0,0-4.6-6.89,13,13,0,0,0-11.08-3.32c-2.77.66-3.71,2.05-3.46,2.46s1.6.27,3.61.65a11.34,11.34,0,0,1,3.39,1.23,11.81,11.81,0,0,1,3.51,2.95,13.54,13.54,0,0,1,2.32,5,23.11,23.11,0,0,1,.57,6.78A45,45,0,0,1,230.65,245Z"/><path class="cls-1" d="M235.45,283.94c2.08.05,4.39.48,5,.3a2.15,2.15,0,0,1,1.38.19c.49.19.9.62,1.41.83s1.2.09,1.71-.8a4.13,4.13,0,0,0-.27-4,8.57,8.57,0,0,0-3.86-3.3,12.85,12.85,0,0,0-5.1-1.23,13,13,0,0,0-5.18.86,10.49,10.49,0,0,0-2.32,1.25,6.51,6.51,0,0,0-1.83,2,3.89,3.89,0,0,0-.2,3.75,1.88,1.88,0,0,0,1.76,1,2.88,2.88,0,0,0,1.25-.59,2.42,2.42,0,0,1,1.41-.44,5.71,5.71,0,0,0,1.76.11C233.34,283.92,234.37,283.9,235.45,283.94Z"/><path class="cls-1" d="M261.62,288.28a15.71,15.71,0,0,1,5.29-2.36,15.54,15.54,0,0,1,2.59-.43l.53-.06.13,0,0,0h0l.07-.19a3.33,3.33,0,0,1,.4-.81.65.65,0,0,1-.18.15,1.55,1.55,0,0,1-.41.2.23.23,0,0,1,.15,0,.87.87,0,0,1,.28.34,3.19,3.19,0,0,1,.12,1.31c-.07,1-.06,1.76.39,2.09s1.18.3,2.22-.4a4.68,4.68,0,0,0,1.62-2,5.26,5.26,0,0,0,.43-1.91,4.88,4.88,0,0,0-.58-2.48,5.09,5.09,0,0,0-2.38-2.18,9.68,9.68,0,0,0-2.28-.67,15.43,15.43,0,0,0-4.08-.27,17.52,17.52,0,0,0-8.88,3.07l-1.53,1.08a6.53,6.53,0,0,1-.93.54,9.57,9.57,0,0,1-2.45.62c-.94.14-2.09.22-3.07.33s-1.63.19-2.17.2a4.22,4.22,0,0,1-1.27-.06,3.07,3.07,0,0,1-1.06-.47c-.64-.45-1-1-1.49-1.05a1.12,1.12,0,0,0-.89.41,2.47,2.47,0,0,0-.57,1.6,4.56,4.56,0,0,0,.78,2.61,6.68,6.68,0,0,0,2.82,2.36,13.17,13.17,0,0,0,3.58,1,29.07,29.07,0,0,0,3.62.41,14,14,0,0,0,4.81-.61,12.84,12.84,0,0,0,2.56-1.2C260.55,289,261.14,288.61,261.62,288.28Z"/><path class="cls-1" d="M257.14,288.22a20.23,20.23,0,0,0-3.16,1.64,19.38,19.38,0,0,0-2.68,2,12.21,12.21,0,0,0-3.47,5,6.75,6.75,0,0,0-.19,4.24c.35,1,.93,1.42,1.47,1.4a2.75,2.75,0,0,0,1.61-1c.56-.53,1.19-1.17,2-1.82a18.26,18.26,0,0,1,3-2c.62-.35,1.32-.7,2.09-1.07s1.57-.75,2.3-1a13.3,13.3,0,0,1,2-.63c.68-.16,1.52-.27,2.45-.42a18.58,18.58,0,0,0,2.94-.65,9.19,9.19,0,0,0,2.8-1.4,5.71,5.71,0,0,0,2.49-4c.06-1.2-.49-1.75-1-1.84a4.41,4.41,0,0,0-1.75.4,10.72,10.72,0,0,1-2.23.32,10.45,10.45,0,0,1-1.44-.06l-2.17-.17a19.1,19.1,0,0,0-3.2,0A14,14,0,0,0,257.14,288.22Z"/><path class="cls-1" d="M266.48,310.22a77.55,77.55,0,0,1,7.61,2.42,37,37,0,0,0,7.3,1.82,13.07,13.07,0,0,0,5.41-.36c1.27-.5,1.86-1.05,1.81-1.59s-.7-1.07-1.69-1.52-2.35-1.1-4-2l-6-3.16a36.85,36.85,0,0,0-8.73-3.43,21.72,21.72,0,0,0-2.7-.45,19.71,19.71,0,0,0-2.77,0,16.18,16.18,0,0,0-2.64.36c-.8.18-1.51.39-2.14.58-1.25.38-2.24.68-3,.83a5.29,5.29,0,0,1-1.75.11,4.65,4.65,0,0,1-2.58-1.62c-.64-.69-1-1.35-1.6-1.43s-1.25.52-1.45,2.06a5.81,5.81,0,0,0,.4,2.77,7.1,7.1,0,0,0,2.43,3.14,8.91,8.91,0,0,0,4.6,1.6,20.78,20.78,0,0,0,4.5-.26c.68-.1,1.3-.19,1.88-.25a12.71,12.71,0,0,1,1.61-.06c.52,0,1.09.09,1.65.1S265.85,310,266.48,310.22Z"/><path class="cls-1" d="M217.2,326.28c-2.38-1.18-4.76-2.51-7.16-3.82l-3.58-1.95-1.76-1-.37-.2h0l-.39-.1-.07,0v0l0,0,.13-.1a1.68,1.68,0,0,1,.35-.16l.07,0,.43-.1.84-.19,1.67-.39c2.21-.5,4.36-1,6.45-1.39,4.18-.85,8.09-1.55,11.68-2.14,14.35-2.33,23.44-3.06,23.43-4.24,0-.54-2.28-1.09-6.44-1.42a126.72,126.72,0,0,0-17.63,0c-3.72.24-7.79.63-12.14,1.22-2.18.29-4.42.64-6.73,1l-1.74.31-.88.16-.44.08-.78.17c-2.15.47-4.38.92-6.61,1.45l-6.82,1.66-3.55.87-1.78.45,1.52.88,6.21,3.62,6.7,3.78,8.38,4.7c2.38,1.33,4.84,2.72,7.48,4a51.18,51.18,0,0,0,8.3,3.33,51.77,51.77,0,0,0,8.55,1.76,72.61,72.61,0,0,0,16-.09c5-.53,9.63-1.38,13.91-2.23,2.13-.44,4.17-.83,6.25-1.35a31.93,31.93,0,0,0,6-2,24.62,24.62,0,0,0,8.53-6.85,37.52,37.52,0,0,0,4.25-6.58c1.89-3.78,2.5-6,2-6.3s-2,1.47-4.64,4.58a57.25,57.25,0,0,1-4.91,5.25,22.13,22.13,0,0,1-7.45,4.68c-3,1.08-6.82,1.48-11.14,2.07s-8.76,1.13-13.45,1.43a71.92,71.92,0,0,1-14.41-.35,45,45,0,0,1-7.22-1.59A46.16,46.16,0,0,1,217.2,326.28Z"/><path class="cls-1" d="M355.19,586.51c3.58,5,7.3,9.74,11,14.43a128.06,128.06,0,0,0,12.08,13.7,52.24,52.24,0,0,0,15.52,10.52,66.61,66.61,0,0,0,17.61,4.56c5.85.77,11.58,1,17.15,1.3l16.57.7,16.24.51,15.86.36c41.81.73,79.43,0,111-1s57.08-2.22,74.71-3.23c8.81-.51,15.66-1,20.29-1.39s7.07-.75,7.06-1c0-.55-9.79-.76-27.45-.69s-43.18.43-74.72.68-69.08.37-110.72-.76l-15.8-.5-16.16-.64-16.49-.8c-5.56-.28-11.08-.59-16.49-1.33a58.83,58.83,0,0,1-15.52-4.05,44.61,44.61,0,0,1-13.18-9A121.71,121.71,0,0,1,372.45,596c-3.66-4.66-7.31-9.34-10.75-14.14-6.88-9.56-12.76-19.6-15.54-30.23a48.46,48.46,0,0,1-1.55-16,99.74,99.74,0,0,1,2.82-16.24c1.32-5.44,2.83-10.91,4-16.54A68.52,68.52,0,0,0,353,485.4l-.14-2.22c-.05-.74-.22-1.48-.33-2.22l-.36-2.2c-.14-.74-.38-1.45-.57-2.17a36.77,36.77,0,0,0-3.25-8.27,41.12,41.12,0,0,0-4.92-7.21,49,49,0,0,0-6-6,71.51,71.51,0,0,0-6.49-5c-2.21-1.52-4.44-2.91-6.68-4.23-4.47-2.66-8.92-5-13.23-7.4-8.58-4.72-16.7-9.47-23-15.57a39.68,39.68,0,0,1-4.29-4.81,49.19,49.19,0,0,1-3.6-5.2c-.51-.92-1-1.85-1.46-2.77l-.72-1.39-.58-1.44c-.39-1-.81-1.9-1.17-2.86s-.61-2-.92-2.93a25.65,25.65,0,0,1-.78-2.95c-.23-1-.48-2-.67-3s-.32-2-.47-3l-.23-1.48-.13-1.49c-.09-1-.18-2-.26-2.95s-.07-2-.1-2.93c-.1-1.95,0-3.89,0-5.8A107,107,0,0,1,276,356.36c.85-3.39,1.83-6.6,2.85-9.77a67,67,0,0,0,2.62-9.71,22.82,22.82,0,0,0-.29-9.91,20.31,20.31,0,0,0-4.4-8.1,28.2,28.2,0,0,0-13.13-8.17,40.32,40.32,0,0,0-12-1.4,69,69,0,0,0-8.67.79c-4.62.73-7,1.35-7,1.61s2.49.2,7.11,0c2.31-.08,5.16-.19,8.49,0a40.13,40.13,0,0,1,11.1,2,25.37,25.37,0,0,1,11.17,7.65,16.55,16.55,0,0,1,3.3,6.66,18.6,18.6,0,0,1-.09,8.09,64.22,64.22,0,0,1-2.74,9c-1.13,3.16-2.27,6.53-3.24,10a109.62,109.62,0,0,0-4,22.67c-.09,2-.25,4.09-.19,6.18,0,1,0,2.09,0,3.15l.21,3.19.12,1.61.21,1.61c.14,1.08.29,2.17.44,3.26s.45,2.17.67,3.26a29.39,29.39,0,0,0,.8,3.27c.33,1.09.65,2.18,1,3.28s.83,2.15,1.24,3.24l.64,1.62.78,1.58c.53,1,1,2.12,1.6,3.17a55.36,55.36,0,0,0,4,6,45.05,45.05,0,0,0,4.8,5.55c7,7,15.58,12.09,24.21,17,4.32,2.44,8.69,4.84,12.94,7.43,2.12,1.29,4.22,2.62,6.23,4.05a62.89,62.89,0,0,1,5.82,4.53,41.48,41.48,0,0,1,5.08,5.19,33.75,33.75,0,0,1,4,6,29.53,29.53,0,0,1,2.57,6.72c.14.58.35,1.15.45,1.75l.28,1.81c.08.61.23,1.2.26,1.82l.1,1.86a60.92,60.92,0,0,1-1.57,15.44c-1.11,5.28-2.62,10.66-4,16.25a105.67,105.67,0,0,0-3.1,17.55,56.61,56.61,0,0,0,1.73,18.57,79.92,79.92,0,0,0,6.89,17.28A137.42,137.42,0,0,0,355.19,586.51Z"/></g></g></svg>